<svg width="120" height="26" viewBox="0 0 120 26" fill="none" xmlns="http://www.w3.org/2000/svg">
<path d="M1.73 22.46V22.91C1.73 23.05 1.66 23.19 1.52 23.33V22.25C1.36 22.25 1.28 22.17 1.28 22.01V21.8C1.28 21.74 1.18 21.64 0.98 21.5C0.8 21.34 0.71 21.24 0.71 21.2C0.71 21.18 0.76 21.17 0.86 21.17V20.96C0.86 20.66 0.93 20.44 1.07 20.3V17.27C1.07 16.25 1 15.53 0.86 15.11V10.76C0.86 10.2 0.79 9.77 0.65 9.47V8.84L0.62 8.54C0.58 8.36 0.54 8.13 0.5 7.85C0.46 7.57 0.42 7.27 0.38 6.95C0.36 6.63 0.33 6.3 0.29 5.96C0.27 5.62 0.26 5.34 0.26 5.12C0.26 4.7 0.31 4.49 0.41 4.49H0.44C0.44 4.21 0.36 4 0.2 3.86V3.17C0.2 2.77 0.36 2.47 0.68 2.27C1.02 2.05 1.29 1.94 1.49 1.94C1.59 2 1.87 2.03 2.33 2.03H3.08C3.36 2.03 3.63 2.05 3.89 2.09C4.15 2.11 4.35 2.12 4.49 2.12C4.83 2.12 5.38 2.11 6.14 2.09C6.9 2.07 7.46 2.06 7.82 2.06C9.08 2.06 9.87 2.16 10.19 2.36C10.91 2.36 11.9 2.72 13.16 3.44C13.4 3.52 13.65 3.68 13.91 3.92C14.19 4.14 14.44 4.28 14.66 4.34C14.8 4.42 14.91 4.63 14.99 4.97C15.09 5.29 15.22 5.49 15.38 5.57C15.46 5.65 15.53 5.76 15.59 5.9C15.67 6.04 15.74 6.15 15.8 6.23C16.24 6.45 16.46 6.88 16.46 7.52C16.66 7.52 16.76 7.73 16.76 8.15C16.76 8.23 16.73 8.3 16.67 8.36V9.47C16.67 9.77 16.6 9.92 16.46 9.92V10.97C16.36 11.07 16.28 11.19 16.22 11.33C16.18 11.45 16.15 11.56 16.13 11.66C16.13 11.76 16.1 11.85 16.04 11.93C15.98 12.01 15.9 12.05 15.8 12.05L15.17 12.71C15.05 12.83 14.99 12.9 14.99 12.92C14.99 13 15.11 13.13 15.35 13.31C15.59 13.49 15.86 13.68 16.16 13.88C16.46 14.08 16.63 14.2 16.67 14.24C16.71 14.26 16.89 14.33 17.21 14.45C17.55 14.57 17.8 14.7 17.96 14.84C18.12 14.96 18.2 15.12 18.2 15.32V15.53C18.32 15.65 18.41 15.78 18.47 15.92C18.55 16.06 18.62 16.25 18.68 16.49C18.76 16.73 18.82 16.91 18.86 17.03V17.27C18.78 17.33 18.72 17.4 18.68 17.48C18.64 17.54 18.62 17.59 18.62 17.63V17.69V18.35C18.48 18.57 18.34 18.76 18.2 18.92C18.08 19.08 17.98 19.2 17.9 19.28C17.84 19.36 17.69 19.51 17.45 19.73C17.23 19.95 17.04 20.14 16.88 20.3L16.22 20.96C16.14 20.96 16.05 21 15.95 21.08C15.87 21.14 15.72 21.27 15.5 21.47C15.3 21.67 15.19 21.78 15.17 21.8C14.93 22.04 14.58 22.29 14.12 22.55C13.68 22.79 13.38 22.91 13.22 22.91C12.94 23.19 12.71 23.33 12.53 23.33L12.32 23.57C12.18 23.65 12 23.72 11.78 23.78C11.56 23.86 11.38 23.93 11.24 23.99V24.2C11.06 24.2 10.82 24.27 10.52 24.41C10.24 24.55 10.05 24.62 9.95 24.62C9.69 24.62 9.41 24.77 9.11 25.07C8.81 25.07 8.59 25.14 8.45 25.28H6.92C6.9 25.26 6.61 25.12 6.05 24.86C5.63 24.86 5.35 24.78 5.21 24.62H4.97C4.41 24.06 3.98 23.78 3.68 23.78C3.38 23.48 3.09 23.33 2.81 23.33V23.12H2.57L2.15 22.67C2.01 22.53 1.87 22.46 1.73 22.46ZM5.78 19.88L6.71 19.43H6.92C6.96 19.43 7.03 19.45 7.13 19.49C7.23 19.51 7.3 19.52 7.34 19.52C7.42 19.52 7.49 19.49 7.55 19.43H7.79C8.43 19.13 8.94 18.92 9.32 18.8C9.3 18.78 9.35 18.73 9.47 18.65C9.61 18.55 9.79 18.42 10.01 18.26C10.25 18.08 10.45 17.89 10.61 17.69V17.48C11.03 17.48 11.6 17.12 12.32 16.4C12.4 16.34 12.52 16.2 12.68 15.98C12.84 15.76 12.95 15.61 13.01 15.53C13.01 15.43 13 15.37 12.98 15.35C12.96 15.33 12.9 15.32 12.8 15.32H8.66L8.54 15.35C8.46 15.37 8.35 15.39 8.21 15.41C8.07 15.43 7.92 15.45 7.76 15.47C7.62 15.49 7.45 15.51 7.25 15.53C7.07 15.55 6.9 15.56 6.74 15.56C6.46 15.56 6.23 15.51 6.05 15.41C5.89 15.31 5.78 15.21 5.72 15.11C5.66 15.01 5.62 14.96 5.6 14.96C5.58 14.96 5.57 15.01 5.57 15.11C5.45 15.11 5.38 15.12 5.36 15.14C5.34 15.16 5.33 15.22 5.33 15.32V15.74C5.33 15.8 5.29 15.94 5.21 16.16C5.15 16.38 5.12 16.53 5.12 16.61V17.48C4.96 17.76 4.88 18.05 4.88 18.35V18.59C4.82 18.65 4.77 18.72 4.73 18.8C4.69 18.86 4.67 18.91 4.67 18.95V19.01C4.73 19.07 4.76 19.12 4.76 19.16C4.72 19.48 4.62 19.64 4.46 19.64L4.88 19.88C4.96 19.8 5.04 19.69 5.12 19.55C5.2 19.39 5.27 19.28 5.33 19.22V19.64C5.33 19.76 5.34 19.83 5.36 19.85C5.38 19.87 5.45 19.88 5.57 19.88H5.78ZM8.45 6.65H7.13H6.98C6.76 6.65 6.62 6.77 6.56 7.01C6.5 7.23 6.43 7.34 6.35 7.34C6.29 7.34 6.24 7.33 6.2 7.31C6.2 7.37 6.16 7.44 6.08 7.52C6.02 7.6 5.99 7.67 5.99 7.73V10.97H6.44L6.5 11.06C6.54 11.06 6.57 10.91 6.59 10.61C6.63 10.29 6.68 10.13 6.74 10.13C6.78 10.13 6.84 10.2 6.92 10.34C7.2 10.34 7.34 10.27 7.34 10.13H7.79C7.97 9.97 8.25 9.84 8.63 9.74C9.01 9.64 9.24 9.55 9.32 9.47C10.22 9.05 10.79 8.68 11.03 8.36C11.09 8.28 11.2 8.21 11.36 8.15C11.52 8.07 11.63 8 11.69 7.94L12.11 7.52C12.11 7.38 12.04 7.23 11.9 7.07H11.24C10.94 6.79 10.01 6.65 8.45 6.65ZM34.3592 4.43H34.5692V3.11C34.5692 2.65 34.4992 2.35 34.3592 2.21H34.5692V2.66C34.6492 2.66 34.7292 2.62 34.8092 2.54C34.8892 2.46 34.9592 2.42 35.0192 2.42V2.63C35.0192 2.49 35.0992 2.42 35.2592 2.42C35.2592 2.48 35.2692 2.54 35.2892 2.6C35.3292 2.66 35.3492 2.7 35.3492 2.72C35.3492 2.76 35.3192 2.81 35.2592 2.87H35.4692V1.97C35.5692 1.97 35.6292 1.98 35.6492 2C35.6692 2.02 35.6792 2.09 35.6792 2.21L35.9192 2.42C36.0192 2.32 36.0792 2.27 36.0992 2.27C36.1992 2.45 36.3592 2.65 36.5792 2.87V2.66H36.8192C36.8192 3.4 36.9592 3.77 37.2392 3.77H37.4792V3.62C37.4792 3.68 37.5092 3.74 37.5692 3.8C37.6492 3.86 37.6892 3.92 37.6892 3.98L37.9292 4.22C37.9292 4.52 37.9992 4.67 38.1392 4.67C38.1392 5.11 38.2192 5.4 38.3792 5.54V5.99C38.4192 6.11 38.4392 6.38 38.4392 6.8C38.4392 7.16 38.4092 7.7 38.3492 8.42C38.3092 9.14 38.2892 9.56 38.2892 9.68C38.4292 10.12 38.4992 10.94 38.4992 12.14V13.04C38.3992 13.22 38.3392 13.53 38.3192 13.97C38.2992 14.39 38.2192 14.67 38.0792 14.81V15.02C38.0792 15.1 38.0392 15.26 37.9592 15.5C37.8792 15.72 37.8392 15.86 37.8392 15.92V16.82C37.8392 17.26 37.7692 17.56 37.6292 17.72V18.14C37.6292 18.22 37.5892 18.34 37.5092 18.5C37.4292 18.64 37.3892 18.75 37.3892 18.83V19.28C37.3892 19.38 37.3092 19.48 37.1492 19.58C37.0092 19.68 36.9392 19.8 36.9392 19.94V20.15C36.6792 20.45 36.4392 20.81 36.2192 21.23C36.0192 21.65 35.8192 21.96 35.6192 22.16C35.4592 22.16 35.3792 22.24 35.3792 22.4H35.1692C35.1292 22.44 35.0192 22.56 34.8392 22.76C34.6592 22.94 34.5092 23.08 34.3892 23.18C34.2892 23.28 34.1492 23.4 33.9692 23.54C33.8092 23.68 33.6592 23.78 33.5192 23.84C33.3992 23.92 33.2792 23.96 33.1592 23.96L32.7092 24.17H30.2492C29.6492 24.17 29.2092 24.02 28.9292 23.72C28.7092 23.72 28.2692 23.67 27.6092 23.57C26.9492 23.47 26.5692 23.37 26.4692 23.27C26.2892 23.19 26.1092 23.06 25.9292 22.88C25.7492 22.68 25.6092 22.51 25.5092 22.37C25.4292 22.23 25.3792 22.16 25.3592 22.16C25.2992 22.1 25.1292 21.93 24.8492 21.65C24.5692 21.35 24.2892 21.08 24.0092 20.84C24.0092 20.76 23.9492 20.62 23.8292 20.42C23.7092 20.2 23.5492 19.92 23.3492 19.58C23.1692 19.24 23.0192 18.91 22.8992 18.59C22.8392 18.43 22.6892 18.21 22.4492 17.93C22.2092 17.65 22.0692 17.43 22.0292 17.27L21.3392 15.26C21.3392 14.8 21.2292 14.07 21.0092 13.07C20.7892 12.07 20.6792 11.31 20.6792 10.79V8.57C20.6792 8.27 20.6692 7.77 20.6492 7.07C20.6492 6.35 20.6492 5.85 20.6492 5.57C20.7892 5.27 20.8592 4.67 20.8592 3.77V2.9H21.3092L21.5492 2.66V2.45C21.6892 2.29 21.9092 2.21 22.2092 2.21C22.8092 2.21 23.3492 2.25 23.8292 2.33C24.3292 2.41 24.6992 2.5 24.9392 2.6C25.1992 2.7 25.3292 2.8 25.3292 2.9L25.7792 3.32C25.7792 3.44 25.8492 3.57 25.9892 3.71C26.1492 3.85 26.2292 4.02 26.2292 4.22V5.12C26.2292 5.34 26.3092 5.83 26.4692 6.59C26.6292 7.33 26.7092 7.84 26.7092 8.12V8.78L26.9192 9.23V10.34C26.9192 10.42 26.9892 10.68 27.1292 11.12C27.2892 11.56 27.3692 11.9 27.3692 12.14C27.4492 12.28 27.5692 12.83 27.7292 13.79C27.9092 14.73 28.1292 15.64 28.3892 16.52C28.6492 17.38 28.9592 17.87 29.3192 17.99C29.5192 18.41 29.7892 18.73 30.1292 18.95C30.4692 19.15 30.7492 19.25 30.9692 19.25C31.1092 19.25 31.2292 19.2 31.3292 19.1C31.8692 19.1 32.3892 18.73 32.8892 17.99L33.5492 16.64C33.5492 16.46 33.6992 16.09 33.9992 15.53V15.5C33.9992 15.46 34.0492 15.02 34.1492 14.18C34.2492 13.32 34.2992 12.7 34.2992 12.32C34.2992 12.1 34.2892 11.96 34.2692 11.9V10.58C34.2692 10.52 34.3192 10.08 34.4192 9.26C34.5192 8.44 34.5692 7.95 34.5692 7.79C34.5692 7.19 34.4992 6.67 34.3592 6.23V4.43ZM34.3592 3.32V3.53C34.2792 3.47 34.2392 3.42 34.2392 3.38C34.2392 3.34 34.2792 3.32 34.3592 3.32ZM53.8834 21.59C53.8834 21.77 54.0534 21.91 54.3934 22.01C54.7334 22.11 54.9034 22.17 54.9034 22.19C54.9034 22.65 54.8134 22.98 54.6334 23.18C54.4534 23.38 54.2734 23.48 54.0934 23.48C54.0134 23.48 53.9534 23.47 53.9134 23.45H52.2934C52.0334 23.45 51.5334 23.51 50.7934 23.63C50.0734 23.75 49.5634 23.81 49.2634 23.81C49.0234 23.81 48.8434 23.78 48.7234 23.72H45.6034C45.5234 23.72 45.3834 23.74 45.1834 23.78C44.9834 23.84 44.8334 23.87 44.7334 23.87C44.0534 23.87 43.5534 23.77 43.2334 23.57C43.0934 23.57 42.8134 23.38 42.3934 23C41.9734 22.6 41.7134 22.4 41.6134 22.4C41.3134 22.1 41.1634 21.61 41.1634 20.93V19.55C41.1634 19.45 41.2034 19.36 41.2834 19.28V19.4C41.3634 19.48 41.4434 19.52 41.5234 19.52C41.6834 19.52 41.7634 19.34 41.7634 18.98L41.4634 17.78V17.33C41.4634 17.25 41.4534 17.21 41.4334 17.21C41.4334 17.19 41.3834 17.18 41.2834 17.18V17.78C41.3634 17.92 41.4034 18.1 41.4034 18.32C41.4034 18.46 41.3734 18.63 41.3134 18.83C41.2534 19.03 41.2034 19.13 41.1634 19.13V18.98C40.9834 18.4 40.8934 17.88 40.8934 17.42C40.8934 17.34 40.9334 17.26 41.0134 17.18V15.56C41.0134 14.46 41.0634 13.66 41.1634 13.16V4.61C41.1634 3.45 41.3134 2.8 41.6134 2.66V2.54C41.7734 2.24 41.9634 2.09 42.1834 2.09H42.3334C42.4934 2.03 42.6134 1.94 42.6934 1.82C42.7734 1.7 42.8334 1.6 42.8734 1.52C42.9134 1.44 42.9534 1.4 42.9934 1.4C43.0334 1.4 43.1134 1.43 43.2334 1.49H43.3834C43.6434 1.49 43.9234 1.54 44.2234 1.64C44.5234 1.74 44.7634 1.84 44.9434 1.94C45.1234 2.04 45.3534 2.18 45.6334 2.36C45.9334 2.52 46.1234 2.62 46.2034 2.66C47.1034 3.18 47.5534 3.78 47.5534 4.46V6.08C47.4534 6.38 47.3934 6.91 47.3734 7.67C47.3534 8.41 47.3134 8.88 47.2534 9.08C47.2534 10.56 47.3034 11.69 47.4034 12.47C47.4034 12.63 47.3834 13.1 47.3434 13.88C47.3234 14.64 47.3134 15.1 47.3134 15.26C47.3334 15.34 47.3434 15.44 47.3434 15.56C47.3434 15.68 47.3134 15.86 47.2534 16.1C47.2134 16.34 47.1934 16.52 47.1934 16.64C47.2134 17.5 47.3834 17.93 47.7034 17.93C47.9034 17.93 48.0434 17.98 48.1234 18.08H48.1834C48.2234 18.06 48.2634 18.05 48.3034 18.05C48.8634 18.05 50.4734 18.25 53.1334 18.65C53.3334 18.65 53.6134 18.68 53.9734 18.74C54.3534 18.78 54.6434 18.8 54.8434 18.8C55.0234 18.8 55.2434 18.84 55.5034 18.92C55.7634 19 55.8934 19.11 55.8934 19.25V20.15C55.8734 20.17 55.7934 20.4 55.6534 20.84C55.5134 21.26 55.2434 21.47 54.8434 21.47C54.7634 21.47 54.6734 21.47 54.5734 21.47C54.4734 21.45 54.3434 21.44 54.1834 21.44C54.0834 21.54 53.9834 21.59 53.8834 21.59ZM41.7634 20.03H41.4634V20.3C41.5634 20.4 41.6634 20.45 41.7634 20.45L41.9134 20.3C41.9134 20.26 41.8834 20.22 41.8234 20.18C41.7834 20.14 41.7634 20.09 41.7634 20.03ZM70.0845 21.59C70.0845 21.77 70.2545 21.91 70.5945 22.01C70.9345 22.11 71.1045 22.17 71.1045 22.19C71.1045 22.65 71.0145 22.98 70.8345 23.18C70.6545 23.38 70.4745 23.48 70.2945 23.48C70.2145 23.48 70.1545 23.47 70.1145 23.45H68.4945C68.2345 23.45 67.7345 23.51 66.9945 23.63C66.2745 23.75 65.7645 23.81 65.4645 23.81C65.2245 23.81 65.0445 23.78 64.9245 23.72H61.8045C61.7245 23.72 61.5845 23.74 61.3845 23.78C61.1845 23.84 61.0345 23.87 60.9345 23.87C60.2545 23.87 59.7545 23.77 59.4345 23.57C59.2945 23.57 59.0145 23.38 58.5945 23C58.1745 22.6 57.9145 22.4 57.8145 22.4C57.5145 22.1 57.3645 21.61 57.3645 20.93V19.55C57.3645 19.45 57.4045 19.36 57.4845 19.28V19.4C57.5645 19.48 57.6445 19.52 57.7245 19.52C57.8845 19.52 57.9645 19.34 57.9645 18.98L57.6645 17.78V17.33C57.6645 17.25 57.6545 17.21 57.6345 17.21C57.6345 17.19 57.5845 17.18 57.4845 17.18V17.78C57.5645 17.92 57.6045 18.1 57.6045 18.32C57.6045 18.46 57.5745 18.63 57.5145 18.83C57.4545 19.03 57.4045 19.13 57.3645 19.13V18.98C57.1845 18.4 57.0945 17.88 57.0945 17.42C57.0945 17.34 57.1345 17.26 57.2145 17.18V15.56C57.2145 14.46 57.2645 13.66 57.3645 13.16V4.61C57.3645 3.45 57.5145 2.8 57.8145 2.66V2.54C57.9745 2.24 58.1645 2.09 58.3845 2.09H58.5345C58.6945 2.03 58.8145 1.94 58.8945 1.82C58.9745 1.7 59.0345 1.6 59.0745 1.52C59.1145 1.44 59.1545 1.4 59.1945 1.4C59.2345 1.4 59.3145 1.43 59.4345 1.49H59.5845C59.8445 1.49 60.1245 1.54 60.4245 1.64C60.7245 1.74 60.9645 1.84 61.1445 1.94C61.3245 2.04 61.5545 2.18 61.8345 2.36C62.1345 2.52 62.3245 2.62 62.4045 2.66C63.3045 3.18 63.7545 3.78 63.7545 4.46V6.08C63.6545 6.38 63.5945 6.91 63.5745 7.67C63.5545 8.41 63.5145 8.88 63.4545 9.08C63.4545 10.56 63.5045 11.69 63.6045 12.47C63.6045 12.63 63.5845 13.1 63.5445 13.88C63.5245 14.64 63.5145 15.1 63.5145 15.26C63.5345 15.34 63.5445 15.44 63.5445 15.56C63.5445 15.68 63.5145 15.86 63.4545 16.1C63.4145 16.34 63.3945 16.52 63.3945 16.64C63.4145 17.5 63.5845 17.93 63.9045 17.93C64.1045 17.93 64.2445 17.98 64.3245 18.08H64.3845C64.4245 18.06 64.4645 18.05 64.5045 18.05C65.0645 18.05 66.6745 18.25 69.3345 18.65C69.5345 18.65 69.8145 18.68 70.1745 18.74C70.5545 18.78 70.8445 18.8 71.0445 18.8C71.2245 18.8 71.4445 18.84 71.7045 18.92C71.9645 19 72.0945 19.11 72.0945 19.25V20.15C72.0745 20.17 71.9945 20.4 71.8545 20.84C71.7145 21.26 71.4445 21.47 71.0445 21.47C70.9645 21.47 70.8745 21.47 70.7745 21.47C70.6745 21.45 70.5445 21.44 70.3845 21.44C70.2845 21.54 70.1845 21.59 70.0845 21.59ZM57.9645 20.03H57.6645V20.3C57.7645 20.4 57.8645 20.45 57.9645 20.45L58.1145 20.3C58.1145 20.26 58.0845 20.22 58.0245 20.18C57.9845 20.14 57.9645 20.09 57.9645 20.03ZM73.8957 20.15C73.8757 20.07 73.8157 19.98 73.7157 19.88C73.6157 19.78 73.5657 19.69 73.5657 19.61C73.5657 19.29 73.6857 19.02 73.9257 18.8C74.1857 18.58 74.3157 18.44 74.3157 18.38C74.3357 18.36 74.3657 18.31 74.4057 18.23C74.4657 18.15 74.5057 18.09 74.5257 18.05C74.5657 18.01 74.6257 17.97 74.7057 17.93C74.7857 17.87 74.8857 17.83 75.0057 17.81C75.0857 17.81 75.1857 17.83 75.3057 17.87C75.2657 17.87 75.2357 17.88 75.2157 17.9H75.1857C75.1857 17.92 75.2057 17.95 75.2457 17.99L75.3057 18.05L75.2457 18.14C75.2057 18.18 75.1857 18.22 75.1857 18.26C75.1857 18.28 75.1957 18.29 75.2157 18.29C75.2557 18.29 75.2757 18.3 75.2757 18.32C75.2957 18.32 75.3057 18.34 75.3057 18.38H75.4257C75.5457 18.38 75.6257 18.33 75.6657 18.23L75.8157 18.11C76.0957 17.99 76.3157 17.93 76.4757 17.93C76.6557 17.93 76.8557 17.99 77.0757 18.11C77.3157 18.21 77.4757 18.26 77.5557 18.26C77.7357 18.32 77.9757 18.44 78.2757 18.62C78.5757 18.78 78.7257 18.88 78.7257 18.92L78.8757 19.25C78.8757 19.31 78.9257 19.39 79.0257 19.49C79.1257 19.59 79.1757 19.65 79.1757 19.67V19.73L79.2357 19.94C79.2757 20.08 79.3157 20.24 79.3557 20.42C79.4157 20.6 79.4457 20.76 79.4457 20.9C79.4457 21.44 79.3157 21.85 79.0557 22.13L79.0257 22.1H78.9957H78.9357L78.6057 22.52L77.8557 23.12C77.3357 23.5 76.9357 23.69 76.6557 23.69C76.4957 23.69 76.3457 23.66 76.2057 23.6L75.6357 23.48C75.5157 23.46 75.3957 23.43 75.2757 23.39C75.1557 23.35 75.0457 23.3 74.9457 23.24C74.8657 23.2 74.7757 23.16 74.6757 23.12C74.5957 23.08 74.5157 23.04 74.4357 23C74.3757 22.94 74.3157 22.9 74.2557 22.88C74.2157 22.84 74.1857 22.81 74.1657 22.79L74.1357 22.76H74.1057C73.8457 22.76 73.6457 22.64 73.5057 22.4C73.3657 22.16 73.2957 21.9 73.2957 21.62C73.2957 21.4 73.3957 21.11 73.5957 20.75C73.7957 20.37 73.8957 20.17 73.8957 20.15ZM82.0004 3.68C82.0004 3.62 82.0004 3.52 82.0004 3.38C82.0204 3.22 82.0304 3.1 82.0304 3.02C82.0504 2.92 82.0604 2.8 82.0604 2.66C82.0804 2.5 82.1004 2.38 82.1204 2.3C82.1404 2.2 82.1704 2.09 82.2104 1.97C82.2504 1.83 82.2904 1.73 82.3304 1.67C82.3904 1.59 82.4504 1.51 82.5104 1.43C82.5704 1.35 82.6404 1.3 82.7204 1.28C82.8204 1.24 82.9304 1.22 83.0504 1.22C83.0904 1.22 83.1704 1.24 83.2904 1.28C83.3104 1.28 83.4404 1.3 83.6804 1.34C83.9204 1.38 84.1104 1.42 84.2504 1.46C84.4104 1.5 84.4904 1.56 84.4904 1.64C84.5304 1.64 84.5704 1.64 84.6104 1.64C84.6504 1.62 84.6804 1.61 84.7004 1.61C84.7404 1.61 84.8504 1.66 85.0304 1.76C85.2104 1.86 85.3204 1.91 85.3604 1.91C86.0004 2.01 86.4204 2.31 86.6204 2.81C86.6604 2.87 86.7304 2.9 86.8304 2.9C86.8704 2.86 86.9204 2.84 86.9804 2.84C87.0204 2.84 87.0704 2.86 87.1304 2.9C87.1904 2.94 87.2404 2.96 87.2804 2.96C87.3204 2.96 87.3604 2.95 87.4004 2.93C87.4404 2.91 87.4804 2.9 87.5204 2.9C87.5404 3 87.5604 3.09 87.5804 3.17C87.6204 3.25 87.6504 3.31 87.6704 3.35C87.6904 3.37 87.7104 3.4 87.7304 3.44C87.7504 3.46 87.7704 3.47 87.7904 3.47C87.7904 3.59 87.7604 3.82 87.7004 4.16C87.6604 4.48 87.6404 4.83 87.6404 5.21C87.6404 5.85 87.6504 6.51 87.6704 7.19C87.7104 7.87 87.7304 8.3 87.7304 8.48C87.6504 8.64 87.5904 8.85 87.5504 9.11C87.5104 9.35 87.4904 9.55 87.4904 9.71C87.4904 9.87 87.4904 10.11 87.4904 10.43C87.5104 10.73 87.5204 10.92 87.5204 11H87.7004L87.9704 10.73C87.9704 10.53 88.0604 10.43 88.2404 10.43L88.4504 10.04C88.6704 9.64 88.8704 9.29 89.0504 8.99C89.2504 8.69 89.4204 8.44 89.5604 8.24C89.7004 8.04 89.8004 7.89 89.8604 7.79C90.0004 7.53 90.2504 7.14 90.6104 6.62C90.9904 6.08 91.3204 5.6 91.6004 5.18C91.9004 4.76 92.0504 4.52 92.0504 4.46C92.3104 4.34 92.6704 3.96 93.1304 3.32C93.6104 2.66 93.9204 2.33 94.0604 2.33C94.3404 2.43 94.5304 2.57 94.6304 2.75C94.6704 2.75 94.7104 2.73 94.7504 2.69C94.8104 2.63 94.8604 2.57 94.9004 2.51C94.9604 2.43 95.0104 2.37 95.0504 2.33C95.0904 2.37 95.1104 2.42 95.1104 2.48C95.1104 2.52 95.1004 2.57 95.0804 2.63C95.0604 2.69 95.0504 2.73 95.0504 2.75C95.0904 2.75 95.2204 2.63 95.4404 2.39C95.6604 2.15 95.8104 2.03 95.8904 2.03H96.0704V2.21C96.1504 2.29 96.2904 2.33 96.4904 2.33C96.6104 2.29 96.6904 2.27 96.7304 2.27C96.7904 2.27 96.8604 2.31 96.9404 2.39C97.0204 2.47 97.1304 2.6 97.2704 2.78C97.4104 2.96 97.5204 3.1 97.6004 3.2V3.32C97.6204 3.34 97.6504 3.41 97.6904 3.53C97.7304 3.65 97.7804 3.75 97.8404 3.83C97.9204 3.91 98.0304 3.95 98.1704 3.95H98.4704C98.5304 3.95 98.5604 3.96 98.5604 3.98C98.5604 4.1 98.2904 4.5 97.7504 5.18C97.6704 5.28 97.6604 5.31 97.7204 5.27C97.4804 5.27 97.2904 5.46 97.1504 5.84C97.0304 6.22 96.9204 6.41 96.8204 6.41H96.7304C96.6304 6.41 96.1304 7.1 95.2304 8.48C95.1104 8.66 94.8604 9.03 94.4804 9.59C94.1004 10.15 93.7604 10.65 93.4604 11.09C93.1604 11.53 93.0104 11.78 93.0104 11.84C93.0104 11.9 93.0404 11.96 93.1004 12.02C93.1804 12.1 93.5404 12.59 94.1804 13.49C94.8204 14.39 95.2504 14.95 95.4704 15.17C95.5304 15.27 95.8504 16.07 96.4304 17.57C97.0304 19.05 97.4104 19.89 97.5704 20.09C97.7504 20.31 97.8504 20.48 97.8704 20.6C97.9104 20.72 97.9504 20.79 97.9904 20.81V20.96C98.1304 21.24 98.2804 21.43 98.4404 21.53C98.4804 21.57 98.5204 21.67 98.5604 21.83C98.6004 21.97 98.6504 22.07 98.7104 22.13C98.7904 22.17 98.8604 22.22 98.9204 22.28C99.0004 22.34 99.0904 22.43 99.1904 22.55C99.2904 22.67 99.3704 22.76 99.4304 22.82L99.0704 23.33C99.0704 23.35 99.1404 23.41 99.2804 23.51C99.1204 23.67 99.0104 23.75 98.9504 23.75C98.9104 23.75 98.8304 23.72 98.7104 23.66V24.11H98.1404C98.0204 24.15 97.9404 24.17 97.9004 24.17C97.7604 24.17 97.6104 24.11 97.4504 23.99C97.2904 23.87 97.1804 23.81 97.1204 23.81C97.0404 23.91 97.0004 24.01 97.0004 24.11C96.9004 24.01 96.7604 23.96 96.5804 23.96H96.2804C96.1404 24.1 96.0004 24.17 95.8604 24.17C95.8204 24.17 95.7804 24.15 95.7404 24.11H95.5904L95.5604 24.08C95.1604 24.18 94.5704 24.23 93.7904 24.23C93.3304 24.23 92.9404 24.1 92.6204 23.84C92.3204 23.6 92.0104 23.21 91.6904 22.67C91.1904 22.25 90.7004 21.37 90.2204 20.03C89.7404 18.69 89.3304 17.78 88.9904 17.3C88.4704 15.96 88.0004 15.12 87.5804 14.78V15.17C87.5204 15.27 87.4904 15.34 87.4904 15.38C87.4904 15.66 87.5704 15.88 87.7304 16.04V16.31C87.7304 16.37 87.7504 16.45 87.7904 16.55C87.8504 16.65 87.8804 16.72 87.8804 16.76C87.8804 16.8 87.8504 16.84 87.7904 16.88C87.7504 16.92 87.7304 16.97 87.7304 17.03C87.7304 17.13 87.7504 17.27 87.7904 17.45C87.8504 17.61 87.8804 17.71 87.8804 17.75V18.29C87.8804 18.37 87.8404 18.68 87.7604 19.22C87.7004 19.76 87.6704 20.11 87.6704 20.27V20.96C87.6704 21.26 87.7704 21.59 87.9704 21.95V22.13C87.9304 22.19 87.9104 22.28 87.9104 22.4C87.9104 22.46 87.9204 22.55 87.9404 22.67C87.9604 22.79 87.9704 22.88 87.9704 22.94V23.24C87.9704 23.38 87.7804 23.45 87.4004 23.45L87.2204 23.33C87.1604 23.33 87.0804 23.42 86.9804 23.6C86.8804 23.78 86.7704 23.87 86.6504 23.87C86.5904 23.87 86.5504 23.85 86.5304 23.81H86.1404C86.1204 23.79 86.0304 23.74 85.8704 23.66C85.7104 23.58 85.6004 23.49 85.5404 23.39C85.5404 23.49 85.5204 23.6 85.4804 23.72C85.4404 23.84 85.4204 23.92 85.4204 23.96C85.3004 23.9 85.2004 23.87 85.1204 23.87C85.0004 23.87 84.9004 23.95 84.8204 24.11C84.4604 23.91 84.2804 23.71 84.2804 23.51C84.2404 23.55 84.2104 23.62 84.1904 23.72C84.1704 23.82 84.1004 23.9 83.9804 23.96C83.9204 23.92 83.8904 23.84 83.8904 23.72C83.8904 23.6 83.8704 23.49 83.8304 23.39C83.7904 23.33 83.7204 23.28 83.6204 23.24C83.5204 23.2 83.4504 23.16 83.4104 23.12C83.4104 23.2 83.4304 23.33 83.4704 23.51C83.5304 23.71 83.5604 23.86 83.5604 23.96C83.4604 23.9 83.3604 23.74 83.2604 23.48C83.1604 23.22 83.1104 23.04 83.1104 22.94C82.9504 22.94 82.8204 23.18 82.7204 23.66H82.5704C82.5704 23.76 82.5904 23.88 82.6304 24.02C82.6904 24.18 82.7204 24.3 82.7204 24.38C82.5804 24.38 82.4904 24.37 82.4504 24.35C82.4304 24.35 82.4204 24.31 82.4204 24.23V23.66C82.4204 23.62 82.3504 23.58 82.2104 23.54C82.0704 23.5 82.0004 23.45 82.0004 23.39C81.9004 23.09 81.8504 22.67 81.8504 22.13V19.55C81.9504 19.17 82.0004 18.65 82.0004 17.99V17.69C82.0004 17.41 81.9504 17.22 81.8504 17.12V15.71C81.8504 15.69 81.8604 15.64 81.8804 15.56C81.9004 15.46 81.9104 15.38 81.9104 15.32C81.9104 15.22 81.8904 15.16 81.8504 15.14L82.0004 14.99C82.0004 14.95 82.0104 14.9 82.0304 14.84L82.0604 14.78L82.0004 14.72C81.9604 14.66 81.9404 14.61 81.9404 14.57L82.0004 14.42V14.15H81.8504V13.88C81.9504 13.88 82.0004 13.77 82.0004 13.55V11.87C82.0004 11.73 82.0204 11.52 82.0604 11.24C82.1004 10.96 82.1204 10.74 82.1204 10.58V8.66C82.1204 8.68 82.1004 8.74 82.0604 8.84C82.0204 8.92 82.0004 8.99 82.0004 9.05C81.9604 8.97 81.9404 8.91 81.9404 8.87C81.9404 8.81 81.9704 8.72 82.0304 8.6C82.0904 8.48 82.1204 8.39 82.1204 8.33L82.0004 8.18C82.0004 7.9 82.0104 7.39 82.0304 6.65C82.0504 5.89 82.0604 5.33 82.0604 4.97C82.0604 4.51 82.0404 4.08 82.0004 3.68ZM106.66 0.8V0.919998C106.76 1.02 106.85 1.07 106.93 1.07C107.11 1.07 107.25 1.02 107.35 0.919998H108.52C108.5 0.899998 108.53 0.859999 108.61 0.8C108.69 0.72 108.74 0.679999 108.76 0.679999C108.78 0.679999 108.83 0.72 108.91 0.8L109 0.889999C109.06 0.889999 109.09 0.859999 109.09 0.8C109.17 0.8 109.26 0.839999 109.36 0.919998H109.51C110.57 1.2 111.2 1.44 111.4 1.64H111.52C111.52 1.9 111.81 2.2 112.39 2.54C112.39 2.58 112.44 2.65 112.54 2.75C112.64 2.83 112.75 2.92 112.87 3.02C112.99 3.12 113.06 3.18 113.08 3.2C113.16 3.3 113.31 3.35 113.53 3.35H113.8C113.76 3.43 113.74 3.51 113.74 3.59C113.74 3.63 113.75 3.67 113.77 3.71C113.79 3.75 113.8 3.78 113.8 3.8L114.1 4.1C114.28 4.1 114.37 4.18 114.37 4.34H114.55C114.49 4.4 114.46 4.45 114.46 4.49C114.46 4.55 114.6 4.68 114.88 4.88C115.18 5.06 115.39 5.18 115.51 5.24C115.73 5.42 115.88 5.51 115.96 5.51L116.08 5.63C116.16 5.69 116.23 5.75 116.29 5.81C116.35 5.87 116.39 5.91 116.41 5.93C116.43 5.95 116.46 5.96 116.5 5.96L116.98 6.38C117.08 6.62 117.2 6.85 117.34 7.07C117.48 7.27 117.59 7.42 117.67 7.52C117.75 7.6 117.79 7.65 117.79 7.67V7.79C117.93 7.79 118.11 8.08 118.33 8.66C118.57 9.22 118.69 9.56 118.69 9.68C119.07 10.66 119.26 11.47 119.26 12.11V12.38C119.26 12.6 119.22 12.75 119.14 12.83V13.25C119.14 13.35 119.1 13.47 119.02 13.61C118.96 13.73 118.93 13.81 118.93 13.85C118.99 13.95 119.02 14.03 119.02 14.09C118.88 14.69 118.77 15.03 118.69 15.11V15.56C118.69 15.64 118.64 15.73 118.54 15.83L118.12 16.82V16.97C117.7 17.89 117.34 18.6 117.04 19.1C116.74 19.6 116.53 19.88 116.41 19.94C116.29 19.98 116.2 20.02 116.14 20.06C116.1 20.08 116.08 20.15 116.08 20.27C115.94 20.45 115.74 20.69 115.48 20.99C115.22 21.27 114.99 21.52 114.79 21.74C114.73 21.84 114.55 22.02 114.25 22.28C113.97 22.54 113.73 22.79 113.53 23.03C113.47 23.07 113.4 23.1 113.32 23.12C113.24 23.14 113.18 23.16 113.14 23.18C113.1 23.2 113.08 23.24 113.08 23.3L112.96 23.45C112.86 23.51 112.75 23.55 112.63 23.57C112.51 23.61 112.43 23.65 112.39 23.69H112.21C111.71 24.19 111.14 24.44 110.5 24.44H109.36C108.92 24.44 108.59 24.35 108.37 24.17H108.22C108.1 24.21 108.02 24.23 107.98 24.23C107.54 24.23 106.97 24.02 106.27 23.6C105.57 23.2 105.07 22.85 104.77 22.55C104.61 22.55 104.46 22.49 104.32 22.37C104.2 22.23 104.03 22.02 103.81 21.74C103.61 21.44 103.41 21.19 103.21 20.99L102.61 20.42C102.61 20.3 102.52 20.1 102.34 19.82C102.16 19.54 102.07 19.35 102.07 19.25C101.31 18.25 100.93 17.3 100.93 16.4C100.77 16.08 100.67 15.65 100.63 15.11C100.59 14.57 100.54 14.19 100.48 13.97V13.13C100.38 12.75 100.33 12.17 100.33 11.39V10.22C100.33 10.04 100.35 9.79 100.39 9.47C100.45 9.15 100.48 8.89 100.48 8.69C101.2 6.87 101.91 5.38 102.61 4.22C102.69 4.16 102.94 3.87 103.36 3.35V3.2C103.46 3.16 103.57 3.07 103.69 2.93C103.83 2.79 103.94 2.7 104.02 2.66C104.06 2.62 104.15 2.57 104.29 2.51C104.45 2.43 104.57 2.36 104.65 2.3C104.73 2.22 104.77 2.14 104.77 2.06H104.92C104.96 2.02 105.04 1.95 105.16 1.85C105.28 1.73 105.39 1.64 105.49 1.58C105.59 1.52 105.68 1.49 105.76 1.49C105.78 1.49 105.88 1.47 106.06 1.43C106.24 1.39 106.37 1.35 106.45 1.31C106.53 1.25 106.57 1.17 106.57 1.07C106.57 1.03 106.54 0.979999 106.48 0.919998C106.48 0.839999 106.54 0.8 106.66 0.8ZM113.53 16.4L113.65 16.55L113.8 16.25C114.3 15.43 114.6 14.77 114.7 14.27V13.7C114.68 11.72 113.85 10.18 112.21 9.08V8.93L112.06 8.81C111.98 8.81 111.82 8.72 111.58 8.54C111.34 8.36 111.17 8.27 111.07 8.27H110.92C110.8 8.27 110.62 8.2 110.38 8.06C110.14 7.9 109.92 7.76 109.72 7.64C109.54 7.5 109.42 7.46 109.36 7.52C109.18 7.62 108.98 7.67 108.76 7.67H107.95L107.8 7.79C107.58 7.79 107.43 7.84 107.35 7.94C107.29 7.94 107.21 7.9 107.11 7.82C107.01 7.74 106.93 7.7 106.87 7.7C106.79 7.7 106.72 7.73 106.66 7.79H106.48C105.58 7.79 104.87 8.99 104.35 11.39V13.52C104.35 13.66 104.44 14.29 104.62 15.41C105 16.17 105.3 16.8 105.52 17.3C105.76 17.5 105.99 17.83 106.21 18.29C106.43 18.51 106.73 18.7 107.11 18.86C107.51 19.02 107.79 19.1 107.95 19.1C108.03 19.2 108.12 19.25 108.22 19.25H108.76C109.3 19.25 109.86 19.02 110.44 18.56C111.02 18.1 111.34 17.86 111.4 17.84L111.79 17.42C111.79 17.38 111.82 17.34 111.88 17.3C111.96 17.24 112.02 17.19 112.06 17.15L112.81 16.4V16.55C112.91 16.49 113.01 16.42 113.11 16.34C113.23 16.24 113.32 16.18 113.38 16.16V16.25C113.3 16.31 113.19 16.45 113.05 16.67C112.91 16.85 112.84 16.91 112.84 16.85C112.84 16.87 112.88 16.91 112.96 16.97L113.53 16.4Z" fill="white"/>
</svg>
